<svg id="Layer_1" data-name="Layer 1" xmlns="http://www.w3.org/2000/svg" viewBox="0 0 300 260"><defs><style>.cls-1{fill:#29abe2;}.cls-2,.cls-3{fill:none;stroke-linecap:round;stroke-miterlimit:10;stroke-width:8px;}.cls-2{stroke:#29abe2;}.cls-3{stroke:#2d2d2d;}</style></defs><title>patts v2</title><circle class="cls-1" cx="210.02" cy="102.48" r="22.52"/><path class="cls-1" d="M156.84,192.36l20.82-25a9,9,0,0,0-6.95-14.83H129.06a9,9,0,0,0-7,14.83l20.82,25A9,9,0,0,0,156.84,192.36Z"/><path class="cls-2" d="M128.54,212.5c.12,3.79.38,7.28.76,10.48,2.9,24.58,38.54,24.56,41.41,0,.37-3.2.63-6.68.75-10.46"/><line class="cls-2" x1="111.4" y1="110.46" x2="87.5" y2="95"/><path class="cls-2" d="M271.21,120s34.29-65.85,10.22-75.11c-11.55-4.45-46.81,4.89-46.81,4.89"/><path class="cls-3" d="M70,27.5c5-2.5,25-12.5,33.57-5,6.22,5.45-.28,16.74-6.07,20"/><path class="cls-2" d="M150,190s17.54,21.29,32.93,26.19c16.29,5.18,42.07-12.75,42.07-12.75"/><path class="cls-2" d="M150,190s-15.82,21.29-31.21,26.19c-16.29,5.18-42.07-12.75-42.07-12.75"/><path class="cls-2" d="M18.71,88S78.24,116.57,87.5,92.5c4.44-11.56,1.13-43.2,1.13-43.2"/><path class="cls-3" d="M17.5,87.5C43.36,72.7,72.89,55.86,98.1,42.27c21.42-11.55,35-6.14,55.07-12.06C162.39,27.49,165.66,10.3,145,10c-12-.17-37.92.55-60.7,10.92-30.67,13.95-44.08,21-71.8,36.58"/></svg>